<svg xmlns="http://www.w3.org/2000/svg" viewBox="0 0 368.08 240.53"><defs><style>.cls-1{opacity:0.19;}.cls-2{fill:#333;}.cls-3{fill:#ffc200;}</style></defs><title>logoblack</title><g id="Camada_2" data-name="Camada 2"><g id="Camada_1-2" data-name="Camada 1"><g class="cls-1"><path d="M35.63,94.1A48.91,48.91,0,0,1,19.94,75.66a55.73,55.73,0,0,1-5.75-25.23A50.61,50.61,0,0,1,19.88,26,39.47,39.47,0,0,1,35.52,9.84,39.13,39.13,0,0,1,57.87,5.17,44.18,44.18,0,0,1,74.74,9.72a38.63,38.63,0,0,1,11.09,8.4,3.48,3.48,0,0,1,.11,4.57h0a2.6,2.6,0,0,1-3.87-.09,35.74,35.74,0,0,0-23.95-11A33.48,33.48,0,0,0,25.25,29.76a44.06,44.06,0,0,0-4.92,21.11,48.52,48.52,0,0,0,5,21.83,42,42,0,0,0,13.64,16,37.66,37.66,0,0,0,19.28,6.83q14.2,1,23.94-7.69a2.62,2.62,0,0,1,3.86.46h0a3.46,3.46,0,0,1-.09,4.55,31.87,31.87,0,0,1-11.14,6.87A40,40,0,0,1,58,102,43.55,43.55,0,0,1,35.63,94.1Z"/><path d="M156.64,81.51l-45.29-3.25A2.59,2.59,0,0,0,108.78,80l-9.2,22.45A2.57,2.57,0,0,1,97,104.09l-.41,0c-2.06-.15-3.43-2.65-2.57-4.7l36.1-86.47a2.57,2.57,0,0,1,2.55-1.67l2.54.18a3.1,3.1,0,0,1,2.56,2l36.32,91.66c.86,2.18-.5,4.49-2.55,4.34l-.42,0a3.1,3.1,0,0,1-2.57-2l-9.37-23.8A3.1,3.1,0,0,0,156.64,81.51ZM154.33,71,136.49,25.51c-1-2.56-4.14-2.78-5.13-.36L113.73,68.07c-.85,2.05.52,4.54,2.57,4.69l35.47,2.54C153.82,75.45,155.18,73.15,154.33,71Z"/><path d="M239.26,106.53q-6.49,6.33-18.29,7.13a2.81,2.81,0,0,0-2.48,3v1.89a2.76,2.76,0,0,1-2.81,3l-2.08-.15a3.3,3.3,0,0,1-2.82-3.39v-1.82a3.34,3.34,0,0,0-2.54-3.35,55.13,55.13,0,0,1-14.16-4.55A41.76,41.76,0,0,1,183.2,101a3.59,3.59,0,0,1-.79-3.92l2-4.62a2.56,2.56,0,0,1,4.19-.91,40.23,40.23,0,0,0,8.31,5.59A44.35,44.35,0,0,0,207.6,101a2.73,2.73,0,0,0,3.16-3l0-25.62a3.43,3.43,0,0,0-2.1-3.23,82.76,82.76,0,0,1-11.94-5.3,27.46,27.46,0,0,1-9.41-8.72q-3.81-5.59-3.81-14.18,0-10.77,6.9-17.77,6.27-6.35,17.82-7.16a2.82,2.82,0,0,0,2.47-3v-2a2.77,2.77,0,0,1,2.81-3l2.08.15a3.31,3.31,0,0,1,2.82,3.39v1.78a3.33,3.33,0,0,0,2.58,3.35,49.77,49.77,0,0,1,10.74,3.06,42,42,0,0,1,9.1,5,3.59,3.59,0,0,1,1.16,4l-1.84,4.91a2.56,2.56,0,0,1-4,1.28,42,42,0,0,0-14.5-6.5,2.74,2.74,0,0,0-3.24,2.92l0,25.78a3.45,3.45,0,0,0,2.11,3.24,95.62,95.62,0,0,1,12.36,5.39,28.18,28.18,0,0,1,9.59,8.6q3.92,5.52,3.93,14.25Q246.43,99.54,239.26,106.53Zm-40-55.77A29.88,29.88,0,0,0,207,55.54c1.82.82,3.7-.59,3.7-2.76l0-21.4c0-2-1.67-3.69-3.42-3.36a15.48,15.48,0,0,0-8.14,3.85,12.64,12.64,0,0,0-3.85,9.47A12.07,12.07,0,0,0,199.25,50.76ZM230.58,98.2a12.05,12.05,0,0,0,4-9.46,11.76,11.76,0,0,0-4.17-9.5,36.48,36.48,0,0,0-8.26-5c-1.83-.83-3.73.57-3.73,2.76l0,21.35c0,2,1.6,3.62,3.32,3.38A16.09,16.09,0,0,0,230.58,98.2Z"/><path d="M334.65,28.9l.11,89.06a2.78,2.78,0,0,1-2.81,3l-.51,0a3.29,3.29,0,0,1-2.82-3.39l-.05-39a3.31,3.31,0,0,0-2.83-3.39L275,71.46a2.78,2.78,0,0,0-2.82,3l.05,39a2.76,2.76,0,0,1-2.81,3l-.51,0a3.28,3.28,0,0,1-2.82-3.38L266,24a2.76,2.76,0,0,1,2.81-3l.51,0a3.3,3.3,0,0,1,2.82,3.39l.05,37.53A3.29,3.29,0,0,0,275,65.33L325.74,69a2.77,2.77,0,0,0,2.81-3l-.05-37.53a2.78,2.78,0,0,1,2.82-3l.51,0A3.3,3.3,0,0,1,334.65,28.9Z"/><path d="M79.11,179.5a26.5,26.5,0,0,1,4.12,14.74q0,12.56-9.14,18.77t-26.5,5L2.93,214.79A3.3,3.3,0,0,1,.11,211.4L0,122.34a2.78,2.78,0,0,1,2.81-3l42.25,3q16.88,1.2,25.49,8.64a23.76,23.76,0,0,1,8.64,18.75,23.1,23.1,0,0,1-2.93,11.79,19.16,19.16,0,0,1-4.56,5.32A3.43,3.43,0,0,0,72,172.2,26.84,26.84,0,0,1,79.11,179.5ZM28,146.84v7.81A3.3,3.3,0,0,0,30.81,158l10.44.75q9.28.67,9.27-6.42t-9.29-7.76l-10.43-.74A2.76,2.76,0,0,0,28,146.84ZM54.54,188.5q0-7.49-9.41-8.17l-14.29-1a2.78,2.78,0,0,0-2.81,3v8.62a3.29,3.29,0,0,0,2.82,3.39l14.29,1Q54.56,196,54.54,188.5Z"/><path d="M148.78,208.62l-28.18-2a2.62,2.62,0,0,0-2.63,1.86l-4.26,12.24a2.58,2.58,0,0,1-2.62,1.85l-22.68-1.63c-2-.14-3.4-2.6-2.59-4.64l34.3-86.6A2.57,2.57,0,0,1,122.7,128L147,129.7a3.11,3.11,0,0,1,2.59,2.09l34.52,91.53c.82,2.17-.55,4.43-2.58,4.28l-23.16-1.66a3.13,3.13,0,0,1-2.63-2.23l-4.29-12.86A3.13,3.13,0,0,0,148.78,208.62Zm-7.41-28-4.1-12.26c-.94-2.78-4.33-3-5.26-.37l-4.07,11.67c-.71,2,.66,4.38,2.63,4.52l8.17.59C140.72,184.87,142.08,182.72,141.37,180.58Z"/><path d="M208.69,225.4a49.39,49.39,0,0,1-16.83-18.93,56.54,56.54,0,0,1-6.12-26.28q0-14.44,6-25.4a40,40,0,0,1,16.79-16.51,44.27,44.27,0,0,1,24.09-4.61,50,50,0,0,1,21.94,6.48,46.23,46.23,0,0,1,14.16,12.76,3.45,3.45,0,0,1-.26,4.45l-13.75,12.93a2.64,2.64,0,0,1-3.94-.45q-7.24-9.34-16.67-10-8.93-.65-14.33,5.45t-5.4,17q0,10.92,5.44,17.77a19.27,19.27,0,0,0,14.35,7.51q9.42.67,16.65-7.64a2.58,2.58,0,0,1,3.93.12l13.8,14.9a3.53,3.53,0,0,1,.26,4.49,37.38,37.38,0,0,1-14.13,10.73,45.9,45.9,0,0,1-21.92,3.34A49.25,49.25,0,0,1,208.69,225.4Z"/><path d="M310.84,208.14l-3.37,4a3.19,3.19,0,0,0-.72,2.08l0,19.18a2.77,2.77,0,0,1-2.81,3l-22.32-1.6a3.29,3.29,0,0,1-2.82-3.39l-.11-89.06a2.76,2.76,0,0,1,2.81-3l22.32,1.6a3.31,3.31,0,0,1,2.82,3.39l0,23.18c0,2.91,3.18,4.53,4.91,2.49l21.93-25.88a2.51,2.51,0,0,1,2.09-.9L359,144.91c2.45.18,3.73,3.55,2.09,5.48L333.22,183.1a3.49,3.49,0,0,0-.17,4.05l30.71,48.43c1.39,2.2.07,5.11-2.25,4.94l-25.86-1.85a3,3,0,0,1-2.25-1.43l-18.21-28.58A2.65,2.65,0,0,0,310.84,208.14Z"/></g><path class="cls-2" d="M39.38,89.05A48.8,48.8,0,0,1,23.7,70.61a55.61,55.61,0,0,1-5.76-25.23A50.64,50.64,0,0,1,23.64,21,38.56,38.56,0,0,1,61.62.12,44.23,44.23,0,0,1,78.5,4.67a38.76,38.76,0,0,1,11.09,8.4,3.5,3.5,0,0,1,.1,4.57h0a2.59,2.59,0,0,1-3.86-.09,35.76,35.76,0,0,0-24-11A33.5,33.5,0,0,0,29,24.71a44.06,44.06,0,0,0-4.91,21.12,48.37,48.37,0,0,0,5,21.82,41.94,41.94,0,0,0,13.63,16A37.7,37.7,0,0,0,62,90.53q14.19,1,23.93-7.69a2.63,2.63,0,0,1,3.87.46h0a3.46,3.46,0,0,1-.1,4.55,31.92,31.92,0,0,1-11.13,6.87,39.85,39.85,0,0,1-16.81,2.2A43.58,43.58,0,0,1,39.38,89.05Z"/><path class="cls-2" d="M160.39,76.46,115.1,73.21a2.59,2.59,0,0,0-2.57,1.7l-9.19,22.44A2.59,2.59,0,0,1,100.77,99l-.41,0c-2.06-.14-3.42-2.65-2.57-4.7l36.1-86.46a2.59,2.59,0,0,1,2.56-1.68l2.53.19a3.07,3.07,0,0,1,2.56,2l36.32,91.67c.86,2.17-.5,4.48-2.55,4.33l-.42,0a3.08,3.08,0,0,1-2.56-2L163,78.51A3.11,3.11,0,0,0,160.39,76.46Zm-2.31-10.53L140.24,20.47c-1-2.57-4.13-2.79-5.13-.37L117.48,63c-.84,2,.52,4.54,2.57,4.69l35.48,2.54C157.58,70.4,158.94,68.1,158.08,65.93Z"/><path class="cls-3" d="M243,101.48q-6.5,6.33-18.3,7.13a2.8,2.8,0,0,0-2.47,3v1.9a2.77,2.77,0,0,1-2.82,3l-2.07-.15a3.29,3.29,0,0,1-2.82-3.39v-1.82a3.34,3.34,0,0,0-2.54-3.35,55.06,55.06,0,0,1-14.15-4.55A41.65,41.65,0,0,1,187,96a3.6,3.6,0,0,1-.8-3.93l2-4.62a2.57,2.57,0,0,1,4.19-.91,40.23,40.23,0,0,0,8.31,5.59A44.5,44.5,0,0,0,211.35,96,2.73,2.73,0,0,0,214.51,93l0-25.62a3.44,3.44,0,0,0-2.11-3.23,82.76,82.76,0,0,1-11.94-5.3A27.55,27.55,0,0,1,191,50.17q-3.79-5.6-3.81-14.18,0-10.77,6.91-17.77,6.25-6.34,17.82-7.16a2.81,2.81,0,0,0,2.46-3V6a2.76,2.76,0,0,1,2.81-3l2.08.14a3.3,3.3,0,0,1,2.82,3.39V8.37a3.32,3.32,0,0,0,2.57,3.35,49.85,49.85,0,0,1,10.75,3.06,42.59,42.59,0,0,1,9.09,5,3.57,3.57,0,0,1,1.16,4l-1.83,4.91a2.57,2.57,0,0,1-4,1.28,41.94,41.94,0,0,0-14.5-6.5,2.73,2.73,0,0,0-3.23,2.92l0,25.78a3.45,3.45,0,0,0,2.11,3.24,95.62,95.62,0,0,1,12.36,5.39,28.09,28.09,0,0,1,9.59,8.6q3.92,5.53,3.93,14.25Q250.18,94.49,243,101.48ZM203,45.71a29.8,29.8,0,0,0,7.74,4.78c1.82.82,3.71-.59,3.7-2.76l0-21.4c0-2-1.68-3.69-3.43-3.36a15.52,15.52,0,0,0-8.14,3.85A12.61,12.61,0,0,0,199,36.29,12,12,0,0,0,203,45.71Zm31.32,47.44a12,12,0,0,0,4-9.46,11.84,11.84,0,0,0-4.17-9.5,36.57,36.57,0,0,0-8.27-5c-1.83-.83-3.73.58-3.72,2.76l0,21.35c0,2,1.6,3.62,3.32,3.39A16.1,16.1,0,0,0,234.33,93.15Z"/><path class="cls-2" d="M338.4,23.85l.11,89.06a2.76,2.76,0,0,1-2.81,3l-.51,0a3.29,3.29,0,0,1-2.82-3.39l-.05-39a3.3,3.3,0,0,0-2.82-3.39l-50.76-3.64a2.76,2.76,0,0,0-2.81,3l.05,39a2.77,2.77,0,0,1-2.82,3l-.51,0a3.31,3.31,0,0,1-2.82-3.39l-.11-89.07a2.77,2.77,0,0,1,2.81-3l.51,0a3.3,3.3,0,0,1,2.82,3.39l.05,37.53a3.3,3.3,0,0,0,2.82,3.39l50.76,3.64a2.76,2.76,0,0,0,2.81-3l0-37.53a2.75,2.75,0,0,1,2.81-3l.51,0A3.29,3.29,0,0,1,338.4,23.85Z"/><path class="cls-2" d="M82.86,174.45A26.42,26.42,0,0,1,87,189.19q0,12.56-9.13,18.77t-26.5,5L6.69,209.74a3.29,3.29,0,0,1-2.82-3.39l-.12-89.06a2.76,2.76,0,0,1,2.82-3l42.25,3q16.86,1.2,25.49,8.64A23.76,23.76,0,0,1,83,144.73,23.18,23.18,0,0,1,80,156.52a19.16,19.16,0,0,1-4.56,5.32,3.43,3.43,0,0,0,.34,5.31A26.79,26.79,0,0,1,82.86,174.45ZM31.74,141.79v7.81A3.3,3.3,0,0,0,34.57,153l10.44.74q9.27.68,9.26-6.42T45,139.56l-10.44-.75A2.76,2.76,0,0,0,31.74,141.79ZM58.3,183.45q0-7.48-9.41-8.17l-14.3-1a2.78,2.78,0,0,0-2.81,3v8.62a3.3,3.3,0,0,0,2.82,3.39l14.3,1Q58.3,191,58.3,183.45Z"/><path class="cls-2" d="M152.53,203.58l-28.18-2a2.62,2.62,0,0,0-2.63,1.86l-4.25,12.24a2.6,2.6,0,0,1-2.63,1.85l-22.68-1.62c-2-.15-3.4-2.61-2.59-4.65l34.3-86.6a2.58,2.58,0,0,1,2.58-1.72l24.27,1.74a3.1,3.1,0,0,1,2.58,2.09l34.52,91.54c.82,2.16-.54,4.42-2.57,4.28l-23.16-1.67a3.14,3.14,0,0,1-2.64-2.23l-4.28-12.85A3.13,3.13,0,0,0,152.53,203.58Zm-7.41-28.05L141,163.28c-.93-2.79-4.33-3-5.26-.38l-4.07,11.67a3.4,3.4,0,0,0,2.64,4.52l8.17.59C144.48,179.82,145.84,177.67,145.12,175.53Z"/><path class="cls-2" d="M212.44,220.35a49.56,49.56,0,0,1-16.83-18.93,56.77,56.77,0,0,1-6.12-26.27q0-14.46,6.06-25.4a39.93,39.93,0,0,1,16.78-16.52,44.3,44.3,0,0,1,24.09-4.61,50.29,50.29,0,0,1,21.94,6.48,46.24,46.24,0,0,1,14.16,12.76,3.44,3.44,0,0,1-.25,4.45l-13.76,12.93a2.62,2.62,0,0,1-3.93-.45q-7.26-9.34-16.68-10-8.91-.64-14.33,5.45t-5.4,17q0,10.92,5.45,17.78a19.29,19.29,0,0,0,14.34,7.5q9.43.68,16.65-7.64a2.6,2.6,0,0,1,3.94.12l13.79,14.9a3.52,3.52,0,0,1,.26,4.49,37.23,37.23,0,0,1-14.13,10.73,45.78,45.78,0,0,1-21.92,3.34A49.29,49.29,0,0,1,212.44,220.35Z"/><path class="cls-2" d="M314.59,203.09l-3.37,4a3.24,3.24,0,0,0-.72,2.08l0,19.18a2.77,2.77,0,0,1-2.82,3l-22.32-1.6a3.3,3.3,0,0,1-2.82-3.39l-.11-89.06a2.78,2.78,0,0,1,2.81-3l22.32,1.61a3.29,3.29,0,0,1,2.82,3.39l0,23.17c0,2.91,3.18,4.53,4.91,2.49l21.94-25.88a2.45,2.45,0,0,1,2.08-.89l23.35,1.67c2.45.18,3.74,3.55,2.09,5.48L337,178.05a3.48,3.48,0,0,0-.16,4l30.7,48.43c1.4,2.21.08,5.11-2.25,4.94l-25.85-1.85a3,3,0,0,1-2.25-1.43l-18.22-28.58A2.65,2.65,0,0,0,314.59,203.09Z"/></g></g></svg>