<svg id="Camada_1" data-name="Camada 1" xmlns="http://www.w3.org/2000/svg" viewBox="0 0 399 260"><defs><style>.cls-1{opacity:0.19;}.cls-2{fill:#fff;}</style></defs><title>logowhite</title><g class="cls-1"><path d="M52.48,103.61A48.91,48.91,0,0,1,36.79,85.17,55.73,55.73,0,0,1,31,59.94a50.64,50.64,0,0,1,5.69-24.4,38.57,38.57,0,0,1,38-20.86,44.18,44.18,0,0,1,16.87,4.55,38.76,38.76,0,0,1,11.09,8.4,3.51,3.51,0,0,1,.11,4.57h0a2.6,2.6,0,0,1-3.87-.09,35.74,35.74,0,0,0-24-11A33.48,33.48,0,0,0,42.1,39.27a44.07,44.07,0,0,0-4.92,21.12,48.51,48.51,0,0,0,5,21.82A42,42,0,0,0,55.79,98.26a37.63,37.63,0,0,0,19.28,6.83q14.21,1,23.93-7.69a2.63,2.63,0,0,1,3.87.46h0a3.45,3.45,0,0,1-.1,4.55,31.74,31.74,0,0,1-11.13,6.87,39.83,39.83,0,0,1-16.8,2.2A43.52,43.52,0,0,1,52.48,103.61Z"/><path d="M173.49,91l-45.3-3.25a2.58,2.58,0,0,0-2.56,1.7l-9.2,22.44a2.57,2.57,0,0,1-2.56,1.69l-.42,0c-2-.14-3.42-2.65-2.56-4.7L147,22.41a2.59,2.59,0,0,1,2.56-1.68l2.54.19a3.07,3.07,0,0,1,2.56,2L191,114.62c.86,2.17-.5,4.48-2.56,4.33l-.42,0a3.1,3.1,0,0,1-2.56-2l-9.37-23.8A3.1,3.1,0,0,0,173.49,91Zm-2.31-10.53L153.34,35c-1-2.57-4.14-2.79-5.13-.37L130.57,77.58c-.84,2,.53,4.54,2.58,4.69l35.47,2.54C170.67,85,172,82.66,171.18,80.49Z"/><path d="M256.11,116q-6.5,6.33-18.3,7.13a2.81,2.81,0,0,0-2.47,3v1.9a2.76,2.76,0,0,1-2.81,3l-2.08-.15a3.3,3.3,0,0,1-2.82-3.39v-1.82a3.34,3.34,0,0,0-2.54-3.35,55.13,55.13,0,0,1-14.16-4.55,42,42,0,0,1-10.88-7.24,3.59,3.59,0,0,1-.79-3.93l2-4.62a2.56,2.56,0,0,1,4.18-.91,40.58,40.58,0,0,0,8.32,5.59,44.35,44.35,0,0,0,10.7,3.89,2.74,2.74,0,0,0,3.16-3l0-25.62a3.43,3.43,0,0,0-2.1-3.23,82.76,82.76,0,0,1-11.94-5.3,27.46,27.46,0,0,1-9.41-8.72q-3.81-5.6-3.82-14.18,0-10.77,6.91-17.77,6.27-6.34,17.82-7.16a2.82,2.82,0,0,0,2.47-3v-2a2.75,2.75,0,0,1,2.81-3l2.08.14a3.31,3.31,0,0,1,2.82,3.39v1.78a3.33,3.33,0,0,0,2.57,3.35,49.69,49.69,0,0,1,10.75,3.06,42.43,42.43,0,0,1,9.1,5,3.59,3.59,0,0,1,1.16,4L257,43.32a2.56,2.56,0,0,1-4,1.28,42.1,42.1,0,0,0-14.5-6.5A2.74,2.74,0,0,0,235.23,41l0,25.78a3.46,3.46,0,0,0,2.1,3.24,94.41,94.41,0,0,1,12.36,5.39,28,28,0,0,1,9.59,8.6q3.93,5.53,3.94,14.25Q263.27,109,256.11,116Zm-40-55.77a29.71,29.71,0,0,0,7.75,4.78c1.82.82,3.7-.59,3.7-2.76l0-21.4c0-2-1.67-3.69-3.42-3.36A15.48,15.48,0,0,0,216,41.38a12.66,12.66,0,0,0-3.85,9.47A12.07,12.07,0,0,0,216.1,60.27Zm31.33,47.44a12.07,12.07,0,0,0,4-9.46,11.81,11.81,0,0,0-4.17-9.5,36.35,36.35,0,0,0-8.27-5c-1.82-.83-3.72.58-3.72,2.76l0,21.35a3.21,3.21,0,0,0,3.32,3.39A16.17,16.17,0,0,0,247.43,107.71Z"/><path d="M351.5,38.41l.11,89.06a2.78,2.78,0,0,1-2.81,3l-.52,0a3.31,3.31,0,0,1-2.82-3.39l0-39a3.29,3.29,0,0,0-2.82-3.39L291.84,81A2.76,2.76,0,0,0,289,84l.05,39a2.77,2.77,0,0,1-2.81,3l-.51,0a3.3,3.3,0,0,1-2.82-3.39l-.12-89.07a2.77,2.77,0,0,1,2.82-3l.51,0A3.31,3.31,0,0,1,289,33.92L289,71.45a3.29,3.29,0,0,0,2.82,3.39l50.76,3.64a2.77,2.77,0,0,0,2.81-3l0-37.53a2.76,2.76,0,0,1,2.81-3l.52,0A3.31,3.31,0,0,1,351.5,38.41Z"/><path d="M96,189a26.42,26.42,0,0,1,4.11,14.74q0,12.56-9.13,18.77t-26.5,5L19.78,224.3A3.3,3.3,0,0,1,17,220.91l-.11-89.06a2.76,2.76,0,0,1,2.81-3l42.25,3q16.88,1.2,25.49,8.64A23.76,23.76,0,0,1,96,159.29a23,23,0,0,1-2.94,11.79,19,19,0,0,1-4.55,5.32,3.43,3.43,0,0,0,.33,5.31A27,27,0,0,1,96,189ZM44.83,156.35v7.81a3.31,3.31,0,0,0,2.82,3.39l10.44.74c6.18.45,9.28-1.69,9.27-6.42s-3.1-7.31-9.29-7.75l-10.44-.75A2.77,2.77,0,0,0,44.83,156.35ZM71.39,198q0-7.48-9.41-8.17l-14.29-1a2.76,2.76,0,0,0-2.81,3v8.62a3.29,3.29,0,0,0,2.82,3.39l14.29,1Q71.41,205.52,71.39,198Z"/><path d="M165.63,218.14l-28.19-2a2.61,2.61,0,0,0-2.62,1.86l-4.26,12.24a2.6,2.6,0,0,1-2.63,1.85l-22.67-1.62c-2-.15-3.4-2.61-2.59-4.65l34.3-86.6a2.56,2.56,0,0,1,2.57-1.72l24.27,1.74a3.11,3.11,0,0,1,2.59,2.09l34.52,91.54c.81,2.16-.55,4.42-2.58,4.27l-23.16-1.66a3.13,3.13,0,0,1-2.63-2.23l-4.29-12.85A3.13,3.13,0,0,0,165.63,218.14Zm-7.41-28-4.11-12.25c-.93-2.79-4.33-3-5.25-.38l-4.07,11.67a3.39,3.39,0,0,0,2.63,4.52l8.17.59C157.57,194.38,158.93,192.23,158.22,190.09Z"/><path d="M225.54,234.91A49.39,49.39,0,0,1,208.71,216a56.53,56.53,0,0,1-6.12-26.27q0-14.46,6-25.4a40,40,0,0,1,16.79-16.52,44.27,44.27,0,0,1,24.09-4.61,50.37,50.37,0,0,1,21.94,6.48,46.32,46.32,0,0,1,14.15,12.76,3.44,3.44,0,0,1-.25,4.45L271.6,179.8a2.62,2.62,0,0,1-3.93-.45q-7.25-9.34-16.67-10-8.92-.65-14.33,5.45t-5.4,17q0,10.92,5.44,17.77A19.27,19.27,0,0,0,251.06,217q9.42.68,16.65-7.64a2.58,2.58,0,0,1,3.93.12l13.79,14.9a3.52,3.52,0,0,1,.27,4.49,37.38,37.38,0,0,1-14.13,10.73A45.8,45.8,0,0,1,249.64,243,49.25,49.25,0,0,1,225.54,234.91Z"/><path d="M327.69,217.65l-3.37,4a3.19,3.19,0,0,0-.72,2.08l0,19.18a2.77,2.77,0,0,1-2.81,3l-22.32-1.6a3.29,3.29,0,0,1-2.82-3.39l-.12-89.06a2.78,2.78,0,0,1,2.82-3l22.32,1.61a3.29,3.29,0,0,1,2.82,3.38l0,23.18c0,2.91,3.18,4.53,4.91,2.49l21.93-25.88a2.46,2.46,0,0,1,2.09-.89l23.35,1.67c2.44.18,3.73,3.55,2.09,5.48l-27.85,32.71a3.51,3.51,0,0,0-.16,4l30.71,48.43c1.39,2.2.07,5.11-2.25,4.94l-25.86-1.85a3,3,0,0,1-2.25-1.43L332,218.17A2.64,2.64,0,0,0,327.69,217.65Z"/></g><path class="cls-2" d="M56.23,98.56A48.73,48.73,0,0,1,40.55,80.12,55.59,55.59,0,0,1,34.79,54.9a50.76,50.76,0,0,1,5.69-24.41,38.59,38.59,0,0,1,38-20.86,44.18,44.18,0,0,1,16.87,4.55,38.49,38.49,0,0,1,11.09,8.4,3.48,3.48,0,0,1,.11,4.57h0a2.59,2.59,0,0,1-3.86-.09,35.76,35.76,0,0,0-24-11A33.5,33.5,0,0,0,45.85,34.22a44.06,44.06,0,0,0-4.91,21.12,48.5,48.5,0,0,0,5,21.82,42,42,0,0,0,13.64,16A37.69,37.69,0,0,0,78.82,100q14.21,1,23.94-7.69a2.62,2.62,0,0,1,3.86.46h0a3.46,3.46,0,0,1-.09,4.55,31.92,31.92,0,0,1-11.13,6.87,39.85,39.85,0,0,1-16.81,2.2A43.55,43.55,0,0,1,56.23,98.56Z"/><path class="cls-2" d="M177.24,86,132,82.73a2.59,2.59,0,0,0-2.57,1.69l-9.2,22.44a2.57,2.57,0,0,1-2.56,1.69l-.41,0c-2.06-.14-3.42-2.65-2.57-4.7l36.1-86.46a2.6,2.6,0,0,1,2.56-1.68l2.53.19a3.08,3.08,0,0,1,2.56,2l36.32,91.66c.86,2.17-.5,4.48-2.55,4.33l-.42,0a3.11,3.11,0,0,1-2.57-2L179.8,88A3.07,3.07,0,0,0,177.24,86Zm-2.31-10.54L157.09,30c-1-2.57-4.13-2.79-5.13-.37L134.33,72.53c-.84,2,.52,4.54,2.57,4.69l35.47,2.54C174.42,79.91,175.79,77.61,174.93,75.44Z"/><path class="cls-2" d="M259.86,111q-6.48,6.33-18.29,7.13a2.82,2.82,0,0,0-2.48,3V123a2.77,2.77,0,0,1-2.82,3l-2.07-.15a3.31,3.31,0,0,1-2.83-3.39v-1.82a3.34,3.34,0,0,0-2.54-3.35,54.93,54.93,0,0,1-14.15-4.55,41.63,41.63,0,0,1-10.89-7.24,3.61,3.61,0,0,1-.79-3.93l2-4.62a2.57,2.57,0,0,1,4.19-.91,40.23,40.23,0,0,0,8.31,5.59,44.5,44.5,0,0,0,10.7,3.89,2.73,2.73,0,0,0,3.16-3l0-25.61a3.45,3.45,0,0,0-2.11-3.24,82.76,82.76,0,0,1-11.94-5.3,27.55,27.55,0,0,1-9.41-8.72q-3.8-5.59-3.81-14.18,0-10.77,6.9-17.77,6.27-6.35,17.82-7.16a2.82,2.82,0,0,0,2.47-3v-2a2.76,2.76,0,0,1,2.81-3l2.08.15A3.29,3.29,0,0,1,239,16.11v1.77a3.34,3.34,0,0,0,2.58,3.35,50,50,0,0,1,10.75,3.06,42.59,42.59,0,0,1,9.09,5,3.58,3.58,0,0,1,1.16,4l-1.83,4.91a2.57,2.57,0,0,1-4,1.28,42,42,0,0,0-14.5-6.5A2.73,2.73,0,0,0,239,36l0,25.79A3.45,3.45,0,0,0,241.13,65a95.62,95.62,0,0,1,12.36,5.39,28.09,28.09,0,0,1,9.59,8.6Q267,84.52,267,93.23,267,104,259.86,111Zm-40-55.77A30,30,0,0,0,227.6,60c1.82.82,3.71-.59,3.7-2.76l0-21.4c0-2-1.68-3.69-3.43-3.36a15.52,15.52,0,0,0-8.14,3.85,12.61,12.61,0,0,0-3.84,9.47A12,12,0,0,0,219.85,55.22Zm31.33,47.44a12,12,0,0,0,4-9.45A11.78,11.78,0,0,0,251,83.7a36.26,36.26,0,0,0-8.26-5c-1.83-.83-3.73.58-3.73,2.76l0,21.36a3.21,3.21,0,0,0,3.32,3.38A16.13,16.13,0,0,0,251.18,102.66Z"/><path class="cls-2" d="M355.25,33.36l.11,89.07a2.77,2.77,0,0,1-2.81,3l-.51,0a3.29,3.29,0,0,1-2.82-3.39l-.05-39a3.3,3.3,0,0,0-2.82-3.39l-50.76-3.64a2.76,2.76,0,0,0-2.81,3l.05,39a2.76,2.76,0,0,1-2.82,3l-.51,0a3.3,3.3,0,0,1-2.82-3.39l-.11-89.07a2.77,2.77,0,0,1,2.81-3l.51,0a3.29,3.29,0,0,1,2.82,3.39l.05,37.52a3.3,3.3,0,0,0,2.82,3.39l50.76,3.64a2.76,2.76,0,0,0,2.81-3l0-37.53a2.75,2.75,0,0,1,2.81-3l.51,0A3.3,3.3,0,0,1,355.25,33.36Z"/><path class="cls-2" d="M99.71,184a26.42,26.42,0,0,1,4.12,14.74q0,12.56-9.14,18.77t-26.5,5l-44.65-3.21a3.31,3.31,0,0,1-2.83-3.39L20.6,126.8a2.76,2.76,0,0,1,2.82-3l42.24,3q16.88,1.2,25.5,8.64a23.76,23.76,0,0,1,8.64,18.75A23.18,23.18,0,0,1,96.86,166a19.16,19.16,0,0,1-4.56,5.32,3.43,3.43,0,0,0,.34,5.31A26.94,26.94,0,0,1,99.71,184ZM48.59,151.3v7.81a3.29,3.29,0,0,0,2.82,3.39l10.43.75q9.29.66,9.27-6.43t-9.28-7.75l-10.44-.75A2.76,2.76,0,0,0,48.59,151.3ZM75.14,193q0-7.49-9.4-8.17l-14.3-1a2.76,2.76,0,0,0-2.81,3v8.62a3.3,3.3,0,0,0,2.82,3.39l14.3,1Q75.15,200.47,75.14,193Z"/><path class="cls-2" d="M169.38,213.09l-28.18-2a2.62,2.62,0,0,0-2.63,1.86l-4.25,12.24a2.6,2.6,0,0,1-2.63,1.85L109,225.39c-2-.15-3.4-2.61-2.59-4.65l34.3-86.6a2.59,2.59,0,0,1,2.58-1.72l24.27,1.74a3.09,3.09,0,0,1,2.58,2.1l34.52,91.53c.82,2.16-.54,4.42-2.57,4.28l-23.17-1.67a3.13,3.13,0,0,1-2.63-2.23L172,215.32A3.12,3.12,0,0,0,169.38,213.09ZM162,185l-4.1-12.25c-.93-2.79-4.33-3-5.26-.38l-4.07,11.67a3.4,3.4,0,0,0,2.64,4.52l8.17.59C161.33,189.33,162.68,187.18,162,185Z"/><path class="cls-2" d="M229.29,229.86a49.56,49.56,0,0,1-16.83-18.93,56.53,56.53,0,0,1-6.12-26.27q0-14.46,6.06-25.4a39.93,39.93,0,0,1,16.78-16.52,44.3,44.3,0,0,1,24.09-4.61,50.29,50.29,0,0,1,21.94,6.48,46.24,46.24,0,0,1,14.16,12.76,3.48,3.48,0,0,1-.25,4.46l-13.76,12.92a2.63,2.63,0,0,1-3.94-.45q-7.25-9.35-16.67-10-8.91-.63-14.33,5.45t-5.4,17q0,10.92,5.44,17.78a19.31,19.31,0,0,0,14.35,7.5q9.42.67,16.65-7.64a2.6,2.6,0,0,1,3.94.12l13.79,14.9a3.52,3.52,0,0,1,.26,4.49,37.38,37.38,0,0,1-14.13,10.73,45.78,45.78,0,0,1-21.92,3.34A49.29,49.29,0,0,1,229.29,229.86Z"/><path class="cls-2" d="M331.44,212.6l-3.37,4a3.24,3.24,0,0,0-.72,2.08l0,19.18a2.75,2.75,0,0,1-2.81,3l-22.32-1.6a3.29,3.29,0,0,1-2.82-3.39l-.11-89.06a2.77,2.77,0,0,1,2.81-3l22.32,1.61a3.29,3.29,0,0,1,2.82,3.39l0,23.17c0,2.92,3.18,4.53,4.91,2.49l21.94-25.88a2.48,2.48,0,0,1,2.08-.89l23.35,1.67c2.45.18,3.74,3.55,2.09,5.48l-27.84,32.71a3.49,3.49,0,0,0-.17,4.05L384.36,240c1.4,2.21.07,5.11-2.25,4.94l-25.85-1.85A3,3,0,0,1,354,241.7l-18.21-28.58A2.65,2.65,0,0,0,331.44,212.6Z"/></svg>